<svg xmlns="http://www.w3.org/2000/svg" xmlns:xlink="http://www.w3.org/1999/xlink" width="500" zoomAndPan="magnify" viewBox="0 0 375 374.999991" height="500" preserveAspectRatio="xMidYMid meet" version="1.0"><defs><g/><clipPath id="c79f26183b"><path d="M 21 104 L 353.847656 104 L 353.847656 332.554688 L 21 332.554688 Z M 21 104 " clip-rule="nonzero"/></clipPath></defs><g fill="#000000" fill-opacity="1"><g transform="translate(128.101182, 231.203188)"><g><path d="M 1.1875 -0.828125 C 1.1875 -1.179688 1.265625 -1.445312 1.421875 -1.625 C 1.585938 -1.800781 1.816406 -1.890625 2.109375 -1.890625 C 2.410156 -1.890625 2.644531 -1.800781 2.8125 -1.625 C 2.988281 -1.445312 3.078125 -1.179688 3.078125 -0.828125 C 3.078125 -0.492188 2.988281 -0.234375 2.8125 -0.046875 C 2.644531 0.140625 2.410156 0.234375 2.109375 0.234375 C 1.847656 0.234375 1.628906 0.148438 1.453125 -0.015625 C 1.273438 -0.179688 1.1875 -0.453125 1.1875 -0.828125 Z M 1.1875 -0.828125 "/></g></g></g><path fill="#1c75bc" d="M 148.761719 121.359375 L 167.296875 139.980469 L 189.652344 118.917969 L 170.425781 99.691406 C 170.910156 98.222656 171.289062 96.726562 171.570312 95.203125 C 171.847656 93.679688 172.023438 92.144531 172.09375 90.601562 C 172.164062 89.054688 172.128906 87.507812 171.988281 85.96875 C 171.847656 84.425781 171.601562 82.902344 171.253906 81.394531 C 170.90625 79.882812 170.457031 78.40625 169.90625 76.960938 C 169.355469 75.511719 168.710938 74.109375 167.96875 72.75 C 167.226562 71.390625 166.398438 70.089844 165.480469 68.84375 C 164.558594 67.597656 163.5625 66.421875 162.480469 65.3125 C 161.402344 64.199219 160.253906 63.167969 159.03125 62.21875 C 157.8125 61.265625 156.535156 60.398438 155.195312 59.621094 C 153.859375 58.839844 152.472656 58.15625 151.042969 57.566406 C 149.609375 56.976562 148.144531 56.488281 146.648438 56.097656 C 145.148438 55.707031 143.632812 55.421875 142.09375 55.238281 C 140.558594 55.054688 139.015625 54.976562 137.46875 55.003906 C 135.917969 55.03125 134.378906 55.164062 132.851562 55.402344 C 131.320312 55.640625 129.816406 55.980469 128.332031 56.421875 L 144.371094 72.492188 L 139.550781 90.480469 L 121.558594 95.304688 L 105.488281 79.261719 C 105.046875 80.746094 104.707031 82.253906 104.472656 83.78125 C 104.234375 85.3125 104.101562 86.851562 104.074219 88.398438 C 104.046875 89.945312 104.125 91.488281 104.308594 93.027344 C 104.492188 94.5625 104.777344 96.082031 105.167969 97.578125 C 105.558594 99.078125 106.046875 100.542969 106.636719 101.972656 C 107.226562 103.40625 107.910156 104.789062 108.6875 106.128906 C 109.46875 107.464844 110.332031 108.742188 111.285156 109.964844 C 112.238281 111.183594 113.269531 112.332031 114.378906 113.414062 C 115.488281 114.492188 116.667969 115.492188 117.914062 116.410156 C 119.15625 117.328125 120.460938 118.160156 121.820312 118.902344 C 123.179688 119.640625 124.582031 120.289062 126.027344 120.835938 C 127.476562 121.386719 128.953125 121.835938 130.460938 122.183594 C 131.96875 122.535156 133.496094 122.777344 135.035156 122.917969 C 136.578125 123.058594 138.121094 123.09375 139.667969 123.023438 C 141.214844 122.957031 142.75 122.78125 144.273438 122.5 C 145.792969 122.222656 147.292969 121.839844 148.761719 121.359375 Z M 148.761719 121.359375 " fill-opacity="1" fill-rule="nonzero"/><path fill="#1c75bc" d="M 190.371094 163.167969 L 222.105469 195.015625 C 226.511719 192.3125 230.550781 189.136719 234.222656 185.492188 C 237.890625 181.847656 241.09375 177.828125 243.828125 173.4375 L 211.203125 140.613281 Z M 190.371094 163.167969 " fill-opacity="1" fill-rule="nonzero"/><path fill="#d9d9d9" d="M 167.527344 59.605469 L 168.992188 61.183594 C 174.78125 59.800781 180.652344 59.078125 186.601562 59.007812 C 192.554688 58.941406 198.4375 59.53125 204.257812 60.785156 L 216.25 48.816406 C 211.191406 47.195312 206.027344 46.007812 200.765625 45.257812 C 195.503906 44.507812 190.214844 44.203125 184.902344 44.347656 C 179.589844 44.492188 174.324219 45.082031 169.109375 46.113281 C 163.898438 47.148438 158.808594 48.613281 153.839844 50.511719 C 159.007812 52.632812 163.570312 55.664062 167.527344 59.605469 Z M 167.527344 59.605469 " fill-opacity="1" fill-rule="nonzero"/><g clip-path="url(#c79f26183b)"><path fill="#d9d9d9" d="M 347.273438 161.300781 L 325.121094 161.300781 C 324.164062 161.300781 323.226562 161.417969 322.300781 161.648438 C 321.375 161.882812 320.496094 162.226562 319.65625 162.679688 C 318.816406 163.132812 318.046875 163.683594 317.34375 164.328125 C 316.640625 164.972656 316.027344 165.695312 315.507812 166.496094 L 310.601562 174.011719 L 293.210938 138.230469 C 291.765625 135.265625 289.964844 132.539062 287.804688 130.050781 C 285.644531 127.558594 283.199219 125.386719 280.46875 123.539062 C 280.070312 121.042969 279.550781 118.574219 278.949219 116.136719 L 266.351562 128.730469 C 266.765625 131.980469 266.976562 135.242188 266.984375 138.515625 C 266.984375 139.917969 266.945312 141.3125 266.871094 142.710938 C 266.796875 144.109375 266.6875 145.503906 266.539062 146.894531 C 266.390625 148.285156 266.203125 149.671875 265.984375 151.050781 C 265.761719 152.433594 265.503906 153.808594 265.210938 155.175781 C 264.917969 156.542969 264.585938 157.902344 264.222656 159.253906 C 263.855469 160.605469 263.457031 161.945312 263.019531 163.273438 C 262.582031 164.601562 262.113281 165.917969 261.605469 167.222656 C 261.101562 168.527344 260.5625 169.816406 259.988281 171.09375 C 259.414062 172.371094 258.804688 173.628906 258.167969 174.875 C 257.527344 176.117188 256.851562 177.34375 256.148438 178.550781 C 255.441406 179.761719 254.707031 180.949219 253.9375 182.117188 C 253.171875 183.289062 252.371094 184.4375 251.542969 185.5625 C 250.714844 186.691406 249.859375 187.796875 248.972656 188.878906 C 248.085938 189.960938 247.171875 191.019531 246.226562 192.050781 C 245.285156 193.085938 244.316406 194.09375 243.320312 195.078125 C 242.324219 196.058594 241.304688 197.015625 240.257812 197.945312 C 239.210938 198.871094 238.140625 199.773438 237.046875 200.644531 C 235.953125 201.519531 234.835938 202.359375 233.699219 203.175781 C 232.558594 203.988281 231.402344 204.769531 230.222656 205.523438 C 229.042969 206.273438 227.84375 206.996094 226.625 207.683594 C 225.40625 208.371094 224.171875 209.027344 222.921875 209.652344 C 221.667969 210.277344 220.402344 210.867188 219.117188 211.421875 C 217.832031 211.980469 216.535156 212.503906 215.226562 212.992188 C 213.914062 213.480469 212.589844 213.933594 211.257812 214.351562 C 209.921875 214.769531 208.578125 215.152344 207.222656 215.5 C 205.867188 215.847656 204.503906 216.160156 203.132812 216.433594 C 201.761719 216.710938 200.382812 216.949219 198.996094 217.152344 C 197.613281 217.355469 196.226562 217.523438 194.832031 217.652344 C 193.4375 217.78125 192.042969 217.875 190.644531 217.929688 C 189.246094 217.984375 187.847656 218.003906 186.449219 217.984375 C 185.050781 217.96875 183.652344 217.914062 182.257812 217.820312 C 180.863281 217.730469 179.46875 217.601562 178.078125 217.4375 C 176.691406 217.269531 175.308594 217.070312 173.929688 216.832031 C 172.550781 216.59375 171.179688 216.316406 169.8125 216.007812 C 168.449219 215.695312 167.09375 215.351562 165.75 214.96875 C 164.402344 214.585938 163.070312 214.167969 161.746094 213.714844 C 160.421875 213.261719 159.109375 212.777344 157.8125 212.253906 C 156.515625 211.734375 155.230469 211.175781 153.960938 210.585938 C 152.695312 209.996094 151.441406 209.375 150.207031 208.71875 C 148.96875 208.0625 147.75 207.375 146.550781 206.65625 C 145.351562 205.9375 144.171875 205.183594 143.011719 204.402344 C 141.851562 203.621094 140.714844 202.808594 139.597656 201.964844 C 138.480469 201.125 137.386719 200.253906 136.316406 199.351562 C 135.246094 198.453125 134.199219 197.523438 133.175781 196.570312 C 132.152344 195.613281 131.15625 194.632812 130.1875 193.625 C 129.21875 192.617188 128.273438 191.582031 127.359375 190.527344 C 126.441406 189.46875 125.554688 188.386719 124.695312 187.28125 C 123.839844 186.179688 123.007812 185.050781 122.210938 183.902344 C 121.410156 182.753906 120.640625 181.585938 119.90625 180.398438 C 119.167969 179.210938 118.460938 178 117.789062 176.777344 C 117.113281 175.550781 116.472656 174.308594 115.863281 173.046875 C 115.257812 171.785156 114.683594 170.511719 114.140625 169.222656 C 113.601562 167.929688 113.09375 166.628906 112.621094 165.3125 C 112.148438 163.992188 111.710938 162.664062 111.3125 161.324219 C 110.910156 159.984375 110.542969 158.636719 110.210938 157.277344 C 109.882812 155.917969 109.585938 154.550781 109.328125 153.175781 C 109.070312 151.800781 108.847656 150.417969 108.660156 149.03125 C 108.476562 147.644531 108.328125 146.253906 108.214844 144.859375 C 108.101562 143.464844 108.027344 142.070312 107.988281 140.671875 C 107.949219 139.273438 107.949219 137.875 107.984375 136.476562 C 108.019531 135.078125 108.089844 133.679688 108.199219 132.285156 C 108.308594 130.890625 108.453125 129.5 108.636719 128.113281 C 108.820312 126.726562 109.039062 125.34375 109.292969 123.96875 C 109.546875 122.59375 109.839844 121.226562 110.167969 119.867188 C 109.679688 119.40625 109.164062 118.949219 108.703125 118.460938 C 104.707031 114.457031 101.664062 109.828125 99.578125 104.570312 C 97.207031 110.675781 95.503906 116.957031 94.472656 123.425781 C 91.738281 125.292969 89.296875 127.480469 87.140625 129.992188 C 84.984375 132.5 83.191406 135.246094 81.757812 138.230469 L 64.34375 174.011719 L 59.433594 166.496094 C 58.914062 165.695312 58.300781 164.972656 57.597656 164.328125 C 56.894531 163.683594 56.125 163.132812 55.285156 162.679688 C 54.445312 162.226562 53.566406 161.882812 52.640625 161.648438 C 51.714844 161.417969 50.777344 161.300781 49.824219 161.300781 L 27.671875 161.300781 C 27.21875 161.292969 26.769531 161.335938 26.328125 161.429688 C 25.882812 161.523438 25.457031 161.660156 25.042969 161.847656 C 24.632812 162.035156 24.242188 162.261719 23.882812 162.535156 C 23.519531 162.804688 23.191406 163.113281 22.898438 163.457031 C 22.601562 163.800781 22.347656 164.171875 22.136719 164.570312 C 21.925781 164.96875 21.757812 165.386719 21.636719 165.824219 C 21.515625 166.261719 21.445312 166.703125 21.421875 167.15625 C 21.398438 167.609375 21.425781 168.058594 21.5 168.503906 L 23.195312 178.632812 C 23.261719 179.039062 23.363281 179.4375 23.5 179.828125 C 23.636719 180.21875 23.808594 180.59375 24.011719 180.953125 C 24.210938 181.3125 24.445312 181.652344 24.707031 181.96875 C 24.96875 182.289062 25.257812 182.582031 25.570312 182.851562 C 25.886719 183.117188 26.222656 183.359375 26.578125 183.566406 C 26.933594 183.777344 27.304688 183.953125 27.691406 184.097656 C 28.078125 184.242188 28.472656 184.351562 28.878906 184.425781 C 29.285156 184.5 29.695312 184.539062 30.109375 184.542969 L 47.324219 184.917969 L 56.449219 190.253906 L 54.472656 194.300781 L 41.902344 199.464844 C 40.632812 199.988281 39.410156 200.605469 38.230469 201.3125 C 37.050781 202.019531 35.929688 202.808594 34.867188 203.679688 C 33.804688 204.550781 32.8125 205.496094 31.890625 206.515625 C 30.96875 207.535156 30.128906 208.613281 29.363281 209.757812 C 28.601562 210.902344 27.929688 212.09375 27.34375 213.335938 C 26.757812 214.582031 26.265625 215.859375 25.871094 217.175781 C 25.472656 218.492188 25.175781 219.828125 24.976562 221.1875 C 24.78125 222.550781 24.683594 223.914062 24.6875 225.289062 L 24.6875 284.085938 C 24.683594 284.859375 24.722656 285.632812 24.796875 286.402344 C 24.871094 287.171875 24.984375 287.9375 25.136719 288.695312 C 25.285156 289.453125 25.472656 290.203125 25.695312 290.945312 C 25.921875 291.683594 26.179688 292.414062 26.476562 293.128906 C 26.769531 293.84375 27.101562 294.542969 27.464844 295.222656 C 27.832031 295.90625 28.226562 296.570312 28.65625 297.210938 C 29.085938 297.855469 29.546875 298.476562 30.039062 299.074219 C 30.527344 299.671875 31.046875 300.246094 31.59375 300.792969 C 32.140625 301.339844 32.714844 301.859375 33.3125 302.351562 C 33.910156 302.839844 34.53125 303.300781 35.175781 303.730469 C 35.816406 304.160156 36.480469 304.558594 37.164062 304.921875 C 37.847656 305.285156 38.542969 305.617188 39.257812 305.910156 C 39.976562 306.207031 40.703125 306.46875 41.441406 306.691406 C 42.183594 306.914062 42.933594 307.101562 43.691406 307.253906 C 44.453125 307.402344 45.214844 307.515625 45.984375 307.589844 C 46.757812 307.664062 47.527344 307.703125 48.300781 307.703125 L 48.300781 326.957031 C 48.300781 327.332031 48.339844 327.707031 48.410156 328.074219 C 48.484375 328.445312 48.59375 328.804688 48.738281 329.152344 C 48.882812 329.5 49.058594 329.832031 49.269531 330.144531 C 49.476562 330.457031 49.714844 330.746094 49.984375 331.011719 C 50.25 331.28125 50.539062 331.519531 50.851562 331.726562 C 51.164062 331.9375 51.496094 332.113281 51.84375 332.257812 C 52.191406 332.402344 52.550781 332.511719 52.921875 332.585938 C 53.289062 332.65625 53.664062 332.695312 54.039062 332.695312 L 92.550781 332.695312 C 92.925781 332.695312 93.300781 332.65625 93.667969 332.585938 C 94.039062 332.511719 94.398438 332.402344 94.746094 332.257812 C 95.09375 332.113281 95.425781 331.9375 95.738281 331.726562 C 96.050781 331.519531 96.339844 331.28125 96.605469 331.011719 C 96.875 330.746094 97.109375 330.457031 97.320312 330.144531 C 97.53125 329.832031 97.707031 329.5 97.851562 329.152344 C 97.996094 328.804688 98.105469 328.445312 98.175781 328.074219 C 98.25 327.707031 98.289062 327.332031 98.289062 326.957031 L 98.289062 311.546875 L 276.625 311.546875 L 276.625 326.957031 C 276.625 327.332031 276.664062 327.707031 276.734375 328.074219 C 276.808594 328.445312 276.917969 328.804688 277.0625 329.152344 C 277.207031 329.5 277.382812 329.832031 277.59375 330.144531 C 277.800781 330.457031 278.039062 330.746094 278.304688 331.011719 C 278.574219 331.28125 278.863281 331.519531 279.175781 331.726562 C 279.488281 331.9375 279.820312 332.113281 280.167969 332.257812 C 280.515625 332.402344 280.875 332.511719 281.246094 332.585938 C 281.613281 332.65625 281.988281 332.695312 282.363281 332.695312 L 320.902344 332.695312 C 321.277344 332.695312 321.652344 332.65625 322.019531 332.585938 C 322.390625 332.511719 322.75 332.402344 323.097656 332.257812 C 323.445312 332.113281 323.777344 331.9375 324.089844 331.726562 C 324.402344 331.519531 324.691406 331.28125 324.960938 331.011719 C 325.226562 330.746094 325.464844 330.457031 325.671875 330.144531 C 325.882812 329.832031 326.058594 329.5 326.203125 329.152344 C 326.347656 328.804688 326.457031 328.445312 326.53125 328.074219 C 326.605469 327.707031 326.640625 327.332031 326.640625 326.957031 L 326.640625 307.703125 C 327.414062 307.703125 328.1875 307.664062 328.957031 307.589844 C 329.726562 307.515625 330.492188 307.402344 331.25 307.253906 C 332.007812 307.101562 332.757812 306.914062 333.5 306.691406 C 334.238281 306.46875 334.96875 306.207031 335.683594 305.910156 C 336.398438 305.617188 337.097656 305.285156 337.777344 304.921875 C 338.460938 304.558594 339.125 304.160156 339.765625 303.730469 C 340.410156 303.300781 341.03125 302.839844 341.628906 302.351562 C 342.226562 301.859375 342.800781 301.339844 343.347656 300.792969 C 343.894531 300.246094 344.414062 299.671875 344.90625 299.074219 C 345.394531 298.476562 345.855469 297.855469 346.285156 297.210938 C 346.714844 296.570312 347.113281 295.90625 347.476562 295.222656 C 347.839844 294.542969 348.171875 293.84375 348.464844 293.128906 C 348.761719 292.414062 349.023438 291.683594 349.246094 290.945312 C 349.46875 290.203125 349.65625 289.453125 349.808594 288.695312 C 349.957031 287.9375 350.070312 287.171875 350.144531 286.402344 C 350.21875 285.632812 350.257812 284.859375 350.257812 284.085938 L 350.257812 225.234375 C 350.261719 223.859375 350.164062 222.492188 349.964844 221.132812 C 349.765625 219.773438 349.46875 218.433594 349.070312 217.117188 C 348.675781 215.804688 348.183594 214.523438 347.597656 213.28125 C 347.011719 212.039062 346.339844 210.84375 345.578125 209.699219 C 344.816406 208.558594 343.972656 207.476562 343.050781 206.457031 C 342.128906 205.4375 341.136719 204.492188 340.074219 203.621094 C 339.011719 202.75 337.890625 201.960938 336.710938 201.253906 C 335.535156 200.546875 334.308594 199.933594 333.039062 199.40625 L 320.441406 194.214844 L 318.460938 190.167969 L 327.585938 184.917969 L 344.804688 184.574219 C 345.214844 184.5625 345.617188 184.519531 346.019531 184.441406 C 346.421875 184.363281 346.816406 184.25 347.195312 184.105469 C 347.578125 183.957031 347.945312 183.78125 348.296875 183.570312 C 348.648438 183.359375 348.976562 183.121094 349.289062 182.851562 C 349.597656 182.585938 349.882812 182.292969 350.140625 181.972656 C 350.398438 181.65625 350.628906 181.320312 350.828125 180.960938 C 351.027344 180.605469 351.195312 180.234375 351.332031 179.847656 C 351.464844 179.460938 351.566406 179.066406 351.632812 178.660156 L 353.328125 168.53125 C 353.402344 168.089844 353.433594 167.644531 353.414062 167.195312 C 353.390625 166.746094 353.324219 166.304688 353.207031 165.871094 C 353.089844 165.4375 352.929688 165.023438 352.722656 164.625 C 352.515625 164.226562 352.269531 163.855469 351.980469 163.507812 C 351.691406 163.164062 351.367188 162.855469 351.011719 162.582031 C 350.65625 162.308594 350.277344 162.074219 349.871094 161.886719 C 349.464844 161.695312 349.039062 161.550781 348.601562 161.449219 C 348.164062 161.351562 347.722656 161.300781 347.273438 161.300781 Z M 281.273438 148.445312 C 281.273438 148.589844 281.273438 148.703125 281.476562 148.820312 L 303.082031 195.015625 L 263.855469 199.980469 L 258.804688 199.980469 C 261.921875 196.378906 264.746094 192.5625 267.28125 188.53125 C 269.816406 184.496094 272.027344 180.296875 273.921875 175.925781 C 275.816406 171.554688 277.367188 167.066406 278.574219 162.460938 C 279.78125 157.855469 280.636719 153.183594 281.128906 148.445312 Z M 93.839844 148.820312 L 93.839844 148.558594 C 94.34375 153.289062 95.203125 157.949219 96.417969 162.546875 C 97.632812 167.144531 99.1875 171.621094 101.082031 175.980469 C 102.976562 180.34375 105.191406 184.535156 107.722656 188.554688 C 110.257812 192.578125 113.082031 196.386719 116.191406 199.980469 L 111.171875 199.980469 L 72.089844 195.015625 Z M 326.785156 234.902344 C 327.289062 234.90625 327.792969 234.953125 328.289062 235.050781 C 328.789062 235.148438 329.269531 235.292969 329.742188 235.484375 C 330.210938 235.675781 330.65625 235.910156 331.082031 236.1875 C 331.507812 236.464844 331.902344 236.777344 332.265625 237.128906 C 332.632812 237.484375 332.957031 237.867188 333.25 238.28125 C 333.539062 238.695312 333.789062 239.136719 333.996094 239.597656 C 334.199219 240.0625 334.359375 240.542969 334.476562 241.035156 C 334.589844 241.527344 334.65625 242.027344 334.675781 242.535156 L 334.847656 256.652344 C 334.855469 256.925781 334.839844 257.199219 334.792969 257.472656 C 334.75 257.742188 334.675781 258.003906 334.578125 258.261719 C 334.480469 258.515625 334.359375 258.761719 334.210938 258.992188 C 334.066406 259.226562 333.898438 259.441406 333.707031 259.636719 C 333.515625 259.835938 333.308594 260.011719 333.082031 260.167969 C 332.859375 260.324219 332.621094 260.457031 332.367188 260.566406 C 332.117188 260.675781 331.855469 260.757812 331.585938 260.8125 C 331.316406 260.871094 331.046875 260.898438 330.773438 260.898438 L 262.277344 261.359375 L 256.339844 266.8125 C 255.535156 267.632812 254.65625 268.359375 253.703125 269 C 252.75 269.640625 251.738281 270.175781 250.675781 270.605469 C 249.613281 271.039062 248.515625 271.359375 247.386719 271.5625 C 246.257812 271.769531 245.117188 271.859375 243.972656 271.832031 L 129.449219 271.832031 C 128.300781 271.863281 127.164062 271.773438 126.035156 271.566406 C 124.902344 271.363281 123.808594 271.042969 122.742188 270.613281 C 121.679688 270.179688 120.671875 269.644531 119.71875 269.003906 C 118.761719 268.363281 117.886719 267.632812 117.082031 266.8125 L 112.980469 263.082031 L 44.167969 262.390625 C 43.894531 262.390625 43.621094 262.359375 43.355469 262.300781 C 43.085938 262.242188 42.824219 262.15625 42.570312 262.046875 C 42.320312 261.9375 42.082031 261.804688 41.855469 261.648438 C 41.628906 261.488281 41.421875 261.308594 41.234375 261.113281 C 41.042969 260.914062 40.875 260.695312 40.730469 260.464844 C 40.582031 260.230469 40.460938 259.984375 40.363281 259.730469 C 40.265625 259.472656 40.191406 259.207031 40.148438 258.9375 C 40.101562 258.664062 40.085938 258.390625 40.09375 258.117188 L 40.410156 242.476562 C 40.429688 241.972656 40.496094 241.472656 40.609375 240.976562 C 40.722656 240.484375 40.882812 240.003906 41.089844 239.542969 C 41.296875 239.078125 41.546875 238.640625 41.835938 238.222656 C 42.128906 237.808594 42.453125 237.425781 42.820312 237.074219 C 43.183594 236.71875 43.578125 236.40625 44.003906 236.128906 C 44.425781 235.851562 44.875 235.617188 45.34375 235.425781 C 45.8125 235.238281 46.296875 235.09375 46.796875 234.996094 C 47.292969 234.898438 47.792969 234.847656 48.300781 234.84375 L 66.953125 234.84375 C 70.484375 234.839844 73.953125 235.296875 77.363281 236.222656 C 80.769531 237.148438 83.996094 238.503906 87.039062 240.296875 L 96.59375 248.390625 L 277.6875 248.390625 L 288.015625 240.296875 C 291.058594 238.503906 294.285156 237.148438 297.695312 236.222656 C 301.101562 235.296875 304.570312 234.839844 308.105469 234.84375 Z M 326.785156 234.902344 " fill-opacity="1" fill-rule="nonzero"/></g><path fill="#1c75bc" d="M 218.117188 63.710938 C 217.707031 63.328125 217.246094 63.039062 216.722656 62.839844 C 216.203125 62.640625 215.664062 62.546875 215.105469 62.554688 C 214.550781 62.566406 214.015625 62.679688 213.5 62.898438 C 212.988281 63.117188 212.535156 63.421875 212.140625 63.816406 C 211.746094 64.210938 211.4375 64.664062 211.222656 65.175781 C 211.003906 65.691406 210.890625 66.226562 210.878906 66.785156 C 210.871094 67.339844 210.964844 67.878906 211.164062 68.402344 C 211.363281 68.921875 211.652344 69.386719 212.035156 69.792969 L 260.296875 118.027344 C 260.496094 118.230469 260.714844 118.410156 260.949219 118.570312 C 261.183594 118.726562 261.429688 118.859375 261.691406 118.96875 C 261.953125 119.078125 262.222656 119.160156 262.5 119.214844 C 262.777344 119.273438 263.058594 119.300781 263.339844 119.300781 C 263.621094 119.300781 263.902344 119.273438 264.179688 119.214844 C 264.457031 119.160156 264.726562 119.078125 264.988281 118.96875 C 265.25 118.859375 265.496094 118.726562 265.730469 118.570312 C 265.964844 118.410156 266.183594 118.230469 266.382812 118.027344 C 266.578125 117.828125 266.757812 117.609375 266.910156 117.375 C 267.066406 117.140625 267.199219 116.890625 267.304688 116.632812 C 267.410156 116.371094 267.492188 116.101562 267.546875 115.824219 C 267.601562 115.546875 267.628906 115.269531 267.628906 114.988281 C 267.628906 114.707031 267.601562 114.425781 267.546875 114.148438 C 267.492188 113.875 267.410156 113.605469 267.304688 113.34375 C 267.199219 113.082031 267.066406 112.835938 266.910156 112.601562 C 266.757812 112.363281 266.578125 112.148438 266.382812 111.945312 Z M 218.117188 63.710938 " fill-opacity="1" fill-rule="nonzero"/><path fill="#1c75bc" d="M 280.414062 98.832031 L 231.34375 49.679688 C 230.996094 49.328125 230.589844 49.058594 230.132812 48.867188 C 229.675781 48.679688 229.199219 48.582031 228.707031 48.582031 C 228.210938 48.582031 227.734375 48.679688 227.277344 48.867188 C 226.820312 49.058594 226.414062 49.328125 226.066406 49.679688 L 218.71875 57.054688 L 273.039062 111.371094 L 280.414062 103.996094 C 280.738281 103.648438 280.992188 103.25 281.167969 102.804688 C 281.34375 102.355469 281.429688 101.894531 281.429688 101.414062 C 281.429688 100.9375 281.34375 100.472656 281.167969 100.027344 C 280.992188 99.582031 280.738281 99.183594 280.414062 98.832031 Z M 280.414062 98.832031 " fill-opacity="1" fill-rule="nonzero"/><path fill="#1c75bc" d="M 183.480469 92.261719 C 183.136719 92.609375 182.871094 93.011719 182.683594 93.46875 C 182.496094 93.921875 182.402344 94.394531 182.402344 94.886719 C 182.402344 95.378906 182.496094 95.851562 182.683594 96.304688 C 182.871094 96.761719 183.136719 97.164062 183.480469 97.511719 L 193.09375 107.125 C 196.042969 106.566406 199 106.535156 201.960938 107.027344 C 204.917969 107.519531 207.703125 108.507812 210.3125 109.996094 L 158.230469 158.777344 C 157.089844 158.550781 155.941406 158.441406 154.777344 158.453125 C 153.617188 158.464844 152.46875 158.59375 151.332031 158.839844 C 150.199219 159.085938 149.097656 159.445312 148.039062 159.917969 C 146.976562 160.390625 145.972656 160.964844 145.03125 161.644531 L 150.398438 166.984375 C 151.308594 166.492188 152.273438 166.152344 153.292969 165.972656 C 154.3125 165.792969 155.332031 165.777344 156.355469 165.925781 C 157.378906 166.078125 158.355469 166.382812 159.28125 166.847656 C 160.207031 167.3125 161.035156 167.910156 161.765625 168.640625 C 162.496094 169.375 163.09375 170.203125 163.558594 171.125 C 164.023438 172.050781 164.332031 173.027344 164.480469 174.050781 C 164.628906 175.074219 164.613281 176.097656 164.433594 177.117188 C 164.253906 178.132812 163.917969 179.097656 163.425781 180.011719 L 168.761719 185.375 C 169.433594 184.429688 170.003906 183.425781 170.472656 182.363281 C 170.941406 181.300781 171.296875 180.203125 171.546875 179.070312 C 171.792969 177.933594 171.921875 176.789062 171.9375 175.628906 C 171.953125 174.464844 171.851562 173.316406 171.632812 172.175781 L 220.210938 119.695312 C 221.691406 122.304688 222.675781 125.089844 223.171875 128.046875 C 223.664062 131.007812 223.632812 133.960938 223.082031 136.910156 L 232.695312 146.523438 C 233.042969 146.871094 233.441406 147.140625 233.898438 147.332031 C 234.351562 147.519531 234.828125 147.617188 235.320312 147.617188 C 235.8125 147.617188 236.285156 147.519531 236.742188 147.332031 C 237.195312 147.140625 237.597656 146.871094 237.945312 146.523438 L 260.183594 124.3125 L 205.691406 70.136719 Z M 218.144531 102.449219 C 218.457031 102.136719 218.796875 101.855469 219.164062 101.609375 C 219.527344 101.363281 219.914062 101.15625 220.324219 100.984375 C 220.730469 100.816406 221.148438 100.6875 221.582031 100.601562 C 222.015625 100.511719 222.453125 100.46875 222.894531 100.46875 C 223.335938 100.46875 223.773438 100.507812 224.207031 100.59375 C 224.640625 100.679688 225.058594 100.808594 225.46875 100.976562 C 225.875 101.144531 226.261719 101.351562 226.628906 101.59375 C 226.996094 101.839844 227.335938 102.117188 227.648438 102.429688 C 227.960938 102.742188 228.242188 103.082031 228.488281 103.449219 C 228.734375 103.816406 228.941406 104.203125 229.109375 104.609375 C 229.277344 105.019531 229.40625 105.4375 229.492188 105.871094 C 229.578125 106.304688 229.621094 106.742188 229.621094 107.183594 C 229.621094 107.625 229.578125 108.0625 229.492188 108.492188 C 229.40625 108.925781 229.277344 109.347656 229.109375 109.753906 C 228.941406 110.164062 228.734375 110.550781 228.488281 110.917969 C 228.242188 111.285156 227.960938 111.625 227.648438 111.933594 C 227.335938 112.246094 226.996094 112.523438 226.628906 112.769531 C 226.261719 113.015625 225.875 113.222656 225.46875 113.390625 C 225.058594 113.558594 224.640625 113.683594 224.207031 113.769531 C 223.773438 113.855469 223.335938 113.898438 222.894531 113.898438 C 222.453125 113.894531 222.015625 113.851562 221.582031 113.765625 C 221.148438 113.679688 220.730469 113.550781 220.324219 113.378906 C 219.914062 113.210938 219.527344 113.003906 219.164062 112.757812 C 218.796875 112.511719 218.457031 112.230469 218.144531 111.917969 C 217.835938 111.605469 217.5625 111.265625 217.320312 110.898438 C 217.078125 110.535156 216.875 110.148438 216.707031 109.742188 C 216.542969 109.335938 216.417969 108.917969 216.332031 108.488281 C 216.246094 108.054688 216.203125 107.621094 216.203125 107.183594 C 216.203125 106.742188 216.246094 106.308594 216.332031 105.878906 C 216.417969 105.449219 216.542969 105.03125 216.707031 104.625 C 216.875 104.21875 217.078125 103.832031 217.320312 103.464844 C 217.5625 103.101562 217.835938 102.761719 218.144531 102.449219 Z M 218.144531 102.449219 " fill-opacity="1" fill-rule="nonzero"/><path fill="#1c75bc" d="M 148.1875 182.335938 C 147.820312 181.96875 147.484375 181.574219 147.179688 181.152344 C 146.875 180.730469 146.609375 180.289062 146.375 179.824219 C 146.144531 179.359375 145.949219 178.878906 145.792969 178.382812 C 145.640625 177.886719 145.527344 177.382812 145.453125 176.867188 C 145.378906 176.355469 145.347656 175.835938 145.359375 175.316406 C 145.367188 174.800781 145.417969 174.285156 145.511719 173.773438 C 145.605469 173.261719 145.742188 172.761719 145.914062 172.273438 C 146.089844 171.785156 146.300781 171.3125 146.550781 170.855469 L 141.214844 165.519531 C 140.609375 166.328125 140.082031 167.1875 139.628906 168.09375 C 139.175781 169 138.808594 169.9375 138.523438 170.910156 C 138.238281 171.878906 138.042969 172.871094 137.933594 173.875 C 137.824219 174.882812 137.808594 175.890625 137.878906 176.902344 C 137.953125 177.910156 138.113281 178.90625 138.363281 179.886719 C 138.613281 180.867188 138.949219 181.816406 139.371094 182.738281 C 139.792969 183.660156 140.289062 184.535156 140.867188 185.367188 C 141.445312 186.199219 142.089844 186.972656 142.804688 187.691406 C 143.519531 188.40625 144.292969 189.054688 145.125 189.632812 C 145.957031 190.210938 146.832031 190.710938 147.753906 191.128906 C 148.671875 191.550781 149.621094 191.886719 150.601562 192.140625 C 151.582031 192.390625 152.578125 192.554688 153.589844 192.628906 C 154.597656 192.703125 155.605469 192.683594 156.613281 192.578125 C 157.621094 192.472656 158.609375 192.277344 159.582031 191.992188 C 160.550781 191.710938 161.492188 191.34375 162.398438 190.890625 C 163.304688 190.441406 164.164062 189.910156 164.972656 189.308594 L 159.636719 183.96875 C 159.183594 184.21875 158.710938 184.429688 158.222656 184.601562 C 157.734375 184.777344 157.238281 184.910156 156.726562 185 C 156.21875 185.09375 155.703125 185.144531 155.1875 185.15625 C 154.667969 185.164062 154.152344 185.132812 153.640625 185.058594 C 153.128906 184.984375 152.625 184.871094 152.128906 184.71875 C 151.636719 184.5625 151.15625 184.371094 150.691406 184.140625 C 150.230469 183.90625 149.789062 183.640625 149.367188 183.335938 C 148.949219 183.035156 148.554688 182.699219 148.1875 182.335938 Z M 148.1875 182.335938 " fill-opacity="1" fill-rule="nonzero"/></svg>